<?xml version="1.0" standalone="no"?>
<!DOCTYPE svg PUBLIC "-//W3C//DTD SVG 20010904//EN"
 "http://www.w3.org/TR/2001/REC-SVG-20010904/DTD/svg10.dtd">
<svg version="1.0" xmlns="http://www.w3.org/2000/svg"
 width="700.000000pt" height="700.000000pt" viewBox="0 0 700.000000 700.000000"
 preserveAspectRatio="xMidYMid meet">
<metadata>
Created by potrace 1.11, written by Peter Selinger 2001-2013
</metadata>
<g transform="translate(0.000000,700.000000) scale(0.100000,-0.100000)"
fill="#000000" stroke="none">
<path d="M3278 6995 c-2 -1 -37 -5 -78 -9 -97 -8 -222 -23 -285 -36 -27 -5
-61 -12 -75 -14 -444 -81 -913 -275 -1305 -540 -49 -33 -92 -63 -95 -66 -3 -3
-40 -32 -83 -64 -209 -159 -445 -394 -619 -617 -74 -95 -248 -350 -248 -364 0
-3 -11 -22 -23 -43 -77 -122 -193 -374 -263 -567 -40 -111 -98 -307 -109 -365
-3 -14 -7 -36 -10 -50 -7 -30 -32 -155 -39 -191 -2 -15 -8 -53 -11 -85 -4 -33
-9 -68 -11 -78 -25 -139 -25 -678 0 -813 2 -10 7 -43 10 -74 4 -31 9 -67 11
-80 3 -13 7 -37 9 -54 15 -102 112 -473 145 -550 5 -11 28 -69 51 -130 69
-179 218 -471 310 -605 91 -134 122 -178 178 -250 215 -276 487 -532 785 -738
65 -45 120 -82 123 -82 3 0 29 -15 58 -34 244 -156 643 -318 986 -402 63 -15
265 -53 310 -59 30 -3 62 -8 70 -10 49 -12 196 -19 415 -20 286 0 358 5 590
40 284 44 691 175 974 315 767 378 1363 1019 1695 1824 96 232 193 587 221
812 4 27 8 60 11 74 26 162 26 739 -1 864 -2 11 -7 44 -11 71 -3 28 -8 62 -10
76 -16 122 -89 406 -146 568 -74 211 -176 433 -274 598 -26 43 -52 87 -58 98
-30 53 -161 240 -225 320 -272 341 -567 601 -941 832 -86 53 -318 174 -400
208 -36 15 -74 31 -85 36 -152 65 -417 147 -600 184 -44 9 -89 19 -100 21 -11
2 -38 6 -60 9 -22 3 -51 7 -65 10 -13 2 -54 7 -90 11 -36 3 -78 8 -95 11 -33
5 -531 13 -537 8z m447 -399 c61 -4 137 -11 170 -16 33 -5 78 -12 100 -15 22
-3 63 -10 90 -16 28 -6 61 -13 74 -15 197 -39 455 -128 706 -245 80 -37 301
-166 389 -226 79 -54 235 -176 306 -238 98 -86 328 -331 392 -420 4 -5 18 -23
31 -40 186 -241 355 -564 466 -893 35 -104 87 -300 96 -365 3 -23 10 -58 15
-77 5 -19 11 -57 15 -85 3 -27 8 -66 10 -85 25 -188 25 -527 0 -722 -3 -21 -7
-57 -11 -80 -4 -35 -27 -165 -39 -228 -25 -127 -93 -340 -164 -518 -31 -77
-136 -289 -176 -357 -19 -31 -35 -59 -35 -61 0 -4 -137 -210 -154 -231 -8 -10
-43 -54 -79 -99 -88 -111 -107 -132 -227 -254 -391 -398 -898 -686 -1445 -824
-55 -13 -113 -27 -130 -30 -16 -2 -53 -9 -82 -15 -28 -6 -78 -13 -110 -16 -32
-4 -60 -8 -63 -10 -12 -7 -236 -19 -365 -19 -240 0 -452 21 -645 65 -25 6 -54
12 -64 15 -105 21 -332 92 -451 141 -982 402 -1673 1234 -1891 2278 -66 314
-75 753 -24 1065 5 30 12 71 15 90 87 533 377 1122 755 1533 113 124 260 263
345 328 17 13 32 26 35 29 3 3 46 35 95 71 329 239 727 421 1115 511 47 10 94
21 105 22 11 2 34 6 50 9 17 4 44 9 60 11 17 2 48 7 70 10 68 10 125 16 209
22 45 3 82 6 83 7 4 5 261 -1 358 -7z"/>
<path d="M2725 6016 c-13 -19 -14 -28 -4 -50 16 -35 74 -38 85 -3 14 40 13 47
-9 62 -31 21 -54 19 -72 -9z"/>
<path d="M4153 5802 c-42 -32 -39 -105 6 -139 26 -20 77 -15 106 10 58 50 20
147 -58 147 -18 0 -42 -8 -54 -18z"/>
<path d="M3314 5469 c-38 -24 -54 -57 -48 -99 6 -39 41 -76 81 -86 38 -10 91
20 108 60 38 90 -61 178 -141 125z"/>
<path d="M5233 5468 c-30 -38 -12 -88 31 -88 26 0 56 28 56 53 0 38 -65 64
-87 35z"/>
<path d="M4563 5323 c-76 -15 -65 -133 13 -149 73 -14 117 84 60 133 -27 23
-32 24 -73 16z"/>
<path d="M1365 5240 c-65 -26 -68 -122 -5 -155 59 -31 130 16 130 85 0 28 -55
80 -84 79 -11 0 -30 -4 -41 -9z"/>
<path d="M2097 5158 c4 -24 7 -72 6 -108 -2 -142 -6 -218 -12 -227 -3 -5 -35
-24 -70 -42 -149 -75 -289 -192 -396 -330 -142 -185 -285 -498 -344 -752 -29
-125 -35 -173 -34 -285 2 -141 43 -255 115 -322 30 -27 115 -61 143 -56 141
22 200 62 297 199 60 84 116 193 151 295 24 69 101 364 113 435 2 17 7 37 9
45 2 8 7 31 10 50 3 19 8 42 10 50 2 8 7 35 10 60 3 25 7 56 9 70 15 82 44
336 50 435 2 46 118 44 179 -3 59 -45 72 -76 73 -174 2 -148 -47 -311 -154
-508 -91 -169 -93 -172 -81 -186 13 -16 54 -9 119 18 68 29 151 57 190 63 19
3 48 8 65 11 34 8 40 19 -71 -128 -147 -194 -254 -374 -295 -498 -27 -84 -28
-177 -3 -222 26 -44 91 -77 145 -72 299 29 818 686 762 966 -8 42 -76 113
-128 134 -25 11 -45 22 -45 25 0 22 178 163 247 196 47 22 64 25 116 20 72 -6
104 -27 134 -88 24 -49 32 -91 34 -194 2 -60 -8 -267 -16 -345 -2 -14 -3 -46
-4 -71 -1 -44 -6 -52 -80 -130 -318 -340 -581 -706 -646 -904 -51 -155 15
-354 139 -417 100 -51 253 -5 355 107 112 124 196 313 267 600 19 77 36 149
38 160 2 11 11 58 20 105 9 47 18 94 20 105 2 11 6 45 10 75 7 53 11 59 93
144 l86 88 -7 -134 c-4 -73 -9 -151 -11 -173 -15 -174 -20 -342 -19 -675 1
-417 8 -490 59 -605 67 -152 198 -157 395 -17 113 81 340 321 340 361 0 39
-147 -16 -315 -119 -118 -72 -169 -75 -209 -12 -63 97 -81 329 -81 1018 l1
491 78 74 c310 291 502 549 562 754 44 151 -1 248 -145 313 -131 58 -306 10
-404 -111 -58 -71 -124 -225 -153 -354 -13 -60 -34 -180 -38 -213 -2 -19 -7
-64 -12 -100 -8 -77 -12 -109 -13 -133 -1 -13 -143 -167 -155 -167 -1 0 -2
114 -2 253 1 138 -3 285 -7 325 -10 88 -45 174 -81 197 -77 51 -222 18 -396
-89 -106 -65 -183 -132 -307 -269 -29 -32 -55 -58 -57 -58 -51 -6 -196 -46
-260 -72 l-83 -34 40 66 c104 170 187 391 192 513 5 93 -11 148 -58 196 -79
83 -203 113 -341 85 -37 -8 -69 -13 -71 -11 -1 2 -5 55 -8 118 -5 109 -22 185
-48 217 -21 24 -29 13 -22 -29z m-38 -525 c-6 -16 -10 -29 -9 -31 2 -3 -9 -81
-16 -115 -3 -12 -11 -56 -19 -97 -8 -41 -17 -84 -19 -95 -2 -11 -23 -96 -46
-190 -81 -331 -189 -605 -267 -682 -45 -43 -116 -70 -148 -55 -47 22 -60 57
-60 167 0 55 3 119 7 142 14 81 64 262 88 318 4 11 15 39 24 62 84 227 263
475 410 571 60 39 68 40 55 5z m2149 -74 c54 -19 78 -81 51 -132 -7 -12 -24
-35 -39 -52 -15 -16 -73 -79 -128 -140 -115 -127 -172 -183 -172 -169 1 19 41
191 56 239 20 64 78 183 103 213 20 23 68 52 87 52 6 0 25 -5 42 -11z m-1477
-669 c44 -12 85 -51 92 -86 15 -78 -50 -193 -210 -369 -229 -253 -343 -327
-343 -225 0 102 180 425 328 592 33 37 66 74 74 82 16 18 14 18 59 6z m644
-776 c-3 -25 -9 -56 -11 -67 -3 -12 -8 -35 -10 -51 -17 -93 -102 -337 -146
-416 -81 -148 -141 -204 -206 -189 -50 11 -65 34 -58 87 9 68 57 157 174 323
123 176 255 357 261 358 2 1 0 -20 -4 -45z"/>
<path d="M5069 4828 c-1 -2 -2 -14 -4 -28 -3 -30 -14 -121 -20 -170 -2 -19 -7
-60 -11 -90 -15 -133 -15 -134 -59 -136 -168 -9 -301 -93 -374 -237 -29 -58
-49 -157 -31 -157 4 0 36 31 71 68 99 105 157 149 219 165 45 12 130 13 130 2
0 -17 -48 -229 -76 -333 -44 -168 -154 -491 -174 -515 -4 -5 -28 -2 -53 7
-149 50 -324 -4 -424 -131 -114 -144 -188 -441 -139 -555 40 -94 122 -149 220
-151 114 -2 166 22 261 117 58 59 82 93 139 206 38 74 70 137 72 139 2 2 40
-35 85 -82 146 -156 234 -202 370 -194 88 6 142 28 220 88 123 96 185 193 223
344 39 156 40 320 3 515 -29 153 -130 366 -223 469 -82 92 -222 183 -316 206
l-26 7 -4 166 c-3 163 -4 168 -33 224 -25 48 -41 68 -46 56z m124 -658 c136
-86 241 -231 284 -393 18 -66 24 -288 11 -382 -9 -61 -31 -143 -47 -173 -6
-12 -9 -22 -6 -22 3 0 -7 -19 -21 -42 -63 -102 -126 -142 -219 -142 -97 1
-128 26 -282 225 -10 12 -5 38 27 135 35 108 110 385 124 459 3 17 15 80 26
140 11 61 23 128 25 150 7 51 14 75 24 75 4 0 28 -13 54 -30z m-612 -894 c19
-8 44 -25 56 -38 l22 -23 -47 -77 c-127 -209 -253 -338 -330 -338 -11 0 -30
12 -42 28 -19 24 -21 36 -17 97 6 79 26 137 72 210 40 63 77 96 139 129 55 29
98 33 147 12z"/>
<path d="M5916 4444 c-53 -52 26 -134 80 -83 28 26 30 46 8 77 -18 26 -65 30
-88 6z"/>
<path d="M846 2894 c-28 -28 -9 -84 28 -84 48 0 76 56 44 88 -17 17 -54 15
-72 -4z"/>
<path d="M5878 2508 c-20 -16 -24 -36 -14 -65 13 -39 71 -36 87 5 19 49 -33
91 -73 60z"/>
<path d="M2050 2412 c-70 -23 -63 -115 9 -115 53 0 81 62 44 95 -26 22 -36 26
-53 20z"/>
<path d="M4963 2027 c-34 -15 -47 -63 -26 -98 10 -16 23 -30 30 -30 7 -1 19
-2 26 -3 19 -3 46 13 62 38 19 29 3 82 -28 92 -34 12 -41 12 -64 1z"/>
<path d="M1815 1780 c-80 -32 -73 -149 10 -164 58 -11 104 24 105 81 0 59 -62
105 -115 83z"/>
<path d="M4629 1356 c-36 -17 -60 -71 -47 -106 31 -90 168 -69 168 26 0 63
-67 107 -121 80z"/>
<path d="M2670 1200 c-25 -25 -26 -72 -2 -93 28 -26 78 -22 98 8 42 65 -41
140 -96 85z"/>
</g>
</svg>
