<?xml version="1.0" standalone="no"?>
<!DOCTYPE svg PUBLIC "-//W3C//DTD SVG 20010904//EN"
 "http://www.w3.org/TR/2001/REC-SVG-20010904/DTD/svg10.dtd">
<svg version="1.0" xmlns="http://www.w3.org/2000/svg"
 width="700.000000pt" height="700.000000pt" viewBox="0 0 700.000000 700.000000"
 preserveAspectRatio="xMidYMid meet">
<metadata>
Created by potrace 1.11, written by Peter Selinger 2001-2013
</metadata>
<g transform="translate(0.000000,700.000000) scale(0.100000,-0.100000)"
fill="#000000" stroke="none">
<path d="M3235 6989 c-535 -40 -1068 -211 -1540 -492 -465 -276 -895 -704
-1180 -1172 -618 -1017 -682 -2269 -169 -3335 349 -725 929 -1303 1649 -1646
767 -364 1633 -438 2450 -209 1319 370 2297 1473 2509 2828 146 930 -90 1879
-654 2632 -436 583 -1035 1011 -1723 1234 -429 138 -893 194 -1342 160z m-525
-649 c11 -11 20 -29 20 -40 0 -26 -34 -60 -60 -60 -26 0 -60 34 -60 60 0 26
34 60 60 60 11 0 29 -9 40 -20z m1659 -255 c39 -38 36 -98 -7 -136 -34 -31
-69 -36 -105 -18 -53 27 -71 87 -43 138 31 55 108 64 155 16z m-974 -359 c40
-17 65 -60 65 -112 0 -52 -53 -104 -106 -104 -122 0 -165 147 -62 210 39 24
57 25 103 6z m2139 -12 c37 -37 3 -98 -50 -92 -18 2 -34 13 -43 29 -13 24 -13
29 2 53 20 30 66 35 91 10z m-749 -179 c33 -32 34 -89 3 -122 -32 -34 -99 -32
-127 3 -47 60 -10 144 64 144 25 0 44 -8 60 -25z m-3586 -91 c56 -47 36 -141
-34 -164 -48 -16 -101 8 -121 55 -41 98 73 179 155 109z m781 -121 c7 -21 14
-98 17 -170 3 -73 8 -133 12 -133 3 0 40 7 81 16 172 36 347 -24 417 -143 26
-45 28 -55 27 -158 -1 -91 -5 -124 -28 -195 -33 -99 -125 -296 -184 -393 -23
-37 -42 -69 -42 -72 0 -2 30 10 67 27 70 31 237 78 280 78 18 0 62 38 171 149
200 203 352 300 549 348 55 14 73 14 112 4 133 -36 168 -175 159 -648 l-5
-255 88 89 88 88 16 148 c67 622 219 892 518 923 154 16 315 -81 349 -209 26
-100 -39 -285 -167 -476 -105 -158 -189 -256 -384 -451 l-186 -184 0 -586 c0
-568 7 -753 36 -925 28 -166 66 -235 131 -235 41 0 89 22 203 90 155 94 305
147 305 108 0 -22 -114 -163 -202 -250 -206 -206 -390 -298 -511 -259 -55 19
-99 75 -130 168 -46 139 -50 197 -51 668 0 414 6 557 40 995 l6 75 -95 -93
-94 -93 -12 -82 c-34 -228 -114 -580 -167 -735 -33 -99 -112 -266 -158 -334
-145 -218 -366 -303 -509 -194 -120 92 -171 294 -116 459 69 208 360 614 705
984 l105 112 16 248 c12 191 13 271 5 347 -19 177 -75 246 -201 249 -83 2
-178 -47 -304 -159 l-99 -87 61 -29 c75 -36 126 -93 140 -158 39 -179 -142
-523 -424 -805 -191 -192 -326 -274 -451 -275 -47 0 -69 5 -94 23 -165 111
-54 436 307 900 47 60 83 111 81 113 -10 9 -193 -38 -273 -71 -101 -42 -167
-50 -173 -22 -2 9 26 71 62 136 125 225 184 385 205 559 18 140 -8 221 -88
277 -37 26 -51 30 -111 30 -38 0 -71 -2 -74 -5 -3 -3 -12 -80 -21 -170 -35
-371 -128 -845 -222 -1135 -55 -171 -175 -378 -268 -464 -94 -87 -234 -123
-330 -87 -77 30 -144 119 -181 241 -27 89 -25 295 5 435 58 266 194 591 340
812 128 193 306 357 493 453 48 25 89 53 92 63 9 27 10 332 2 382 l-7 45 30
-32 c16 -18 35 -49 41 -70z m3345 -400 c29 -57 30 -62 35 -242 l5 -184 50 -17
c346 -118 586 -501 611 -975 16 -288 -55 -523 -201 -671 -151 -153 -295 -208
-445 -170 -112 29 -200 91 -324 231 l-73 82 -52 -106 c-78 -157 -132 -239
-203 -307 -75 -72 -121 -98 -206 -114 -181 -36 -342 94 -342 275 0 71 26 201
57 288 85 240 219 370 411 399 68 11 81 9 228 -28 19 -5 25 4 54 78 53 138
127 365 164 503 29 111 86 362 86 382 0 14 -158 -6 -196 -25 -46 -24 -145
-110 -211 -184 -58 -66 -73 -71 -73 -24 0 81 59 193 146 279 77 76 205 127
319 127 25 0 45 3 45 8 0 4 9 75 19 157 11 83 23 190 27 238 6 80 8 86 23 73
9 -8 30 -41 46 -73z m990 -358 c14 -13 25 -33 25 -45 0 -27 -43 -70 -70 -70
-27 0 -70 43 -70 70 0 27 43 70 70 70 12 0 32 -11 45 -25z m-5725 -1745 c11
-11 20 -29 20 -40 0 -26 -34 -60 -60 -60 -26 0 -60 34 -60 60 0 11 9 29 20 40
11 11 29 20 40 20 11 0 29 -9 40 -20z m5664 -446 c37 -37 3 -98 -50 -92 -18 2
-34 13 -43 29 -13 24 -13 29 2 53 20 30 66 35 91 10z m-4333 -112 c45 -37 16
-122 -41 -122 -31 0 -70 39 -70 70 0 19 9 36 26 49 33 26 55 26 85 3z m3319
-437 c33 -35 31 -81 -4 -112 -33 -28 -65 -29 -99 -3 -44 35 -43 93 2 127 27
21 75 15 101 -12z m-3539 -284 c38 -39 40 -97 5 -138 -20 -23 -32 -28 -71 -28
-39 0 -51 5 -71 28 -55 64 -11 167 71 167 27 0 44 -8 66 -29z m3143 -451 c8 0
25 -12 40 -26 59 -60 14 -164 -71 -164 -75 0 -118 65 -89 134 16 37 67 70 94
61 8 -3 19 -5 26 -5z m-2179 -185 c14 -13 25 -36 25 -50 0 -36 -42 -75 -80
-75 -63 0 -94 79 -48 127 29 31 72 30 103 -2z"/>
<path d="M1812 4771 c-243 -158 -484 -582 -573 -1011 -30 -148 -31 -300 -2
-356 12 -23 29 -44 38 -48 45 -17 120 6 169 52 99 93 205 362 310 782 53 210
132 607 124 616 -3 2 -32 -14 -66 -35z"/>
<path d="M4192 4680 c-65 -40 -133 -182 -182 -381 -42 -174 -42 -175 31 -104
95 93 310 336 320 363 17 44 10 73 -25 108 -41 41 -92 46 -144 14z"/>
<path d="M2510 3868 c-141 -159 -227 -288 -321 -482 -81 -166 -94 -241 -45
-259 43 -17 210 128 400 348 177 203 227 319 176 403 -20 32 -86 71 -122 72
-9 0 -49 -37 -88 -82z"/>
<path d="M3315 3051 c-27 -36 -118 -161 -202 -278 -216 -302 -274 -431 -223
-495 17 -23 30 -28 63 -28 54 0 88 23 142 96 78 104 157 283 209 476 27 97 68
289 64 293 -2 2 -25 -27 -53 -64z"/>
<path d="M5311 4148 c-42 -267 -108 -539 -192 -799 l-41 -127 75 -95 c96 -120
136 -153 204 -168 230 -52 395 205 394 612 -1 69 -5 150 -11 180 -38 204 -155
384 -319 491 -40 26 -77 48 -80 48 -4 0 -17 -64 -30 -142z"/>
<path d="M4589 3251 c-150 -59 -257 -213 -274 -395 -11 -109 42 -168 118 -131
93 44 259 243 347 415 21 41 21 43 3 62 -48 54 -130 74 -194 49z"/>
</g>
</svg>
