<svg xmlns="http://www.w3.org/2000/svg" viewBox="0 0 38.08 12.22"><defs><style>.cls-1{fill:#23a0e5;}</style></defs><title>arrow-blue</title><g id="Layer_2" data-name="Layer 2"><g id="HOME"><path class="cls-1" d="M37.18,6.32A190.81,190.81,0,0,0,.56,4.8C-.2,4.84-.18,6,.58,6A189.33,189.33,0,0,1,36.9,7.46C37.64,7.57,37.93,6.42,37.18,6.32Z"/><path class="cls-1" d="M36.15,4.72,30.21.13c-.6-.46-1.42.39-.82.86L33,3.79l1.66,1.27a11.94,11.94,0,0,1,2,1.53c.3,1.38-7.4,4-8.54,4.45-.69.29-.36,1.42.35,1.13,2-.81,3.94-1.66,5.88-2.57,1-.49,3.48-1.13,3.71-2.52C38.26,5.92,36.93,5.32,36.15,4.72Z"/></g></g></svg>