<svg xmlns="http://www.w3.org/2000/svg" viewBox="0 0 1833.88 1305.95"><defs><style>.cls-1{fill:#fff;}</style></defs><title>bg-stars</title><g id="Layer_2" data-name="Layer 2"><g id="Layer_5" data-name="Layer 5"><path class="cls-1" d="M353.88,48.09A1.8,1.8,0,1,1,352,46.38,1.81,1.81,0,0,1,353.88,48.09Z"/><path class="cls-1" d="M1608.34,378.28a1.8,1.8,0,1,1-1.89-1.7A1.8,1.8,0,0,1,1608.34,378.28Z"/><path class="cls-1" d="M423.28,760.21a1.8,1.8,0,1,1-1.89-1.7A1.8,1.8,0,0,1,423.28,760.21Z"/><path class="cls-1" d="M1323.91,777.85a1.79,1.79,0,1,1-1.88-1.7A1.79,1.79,0,0,1,1323.91,777.85Z"/><path class="cls-1" d="M639.67,788.81a1.79,1.79,0,1,1-1.88-1.7A1.8,1.8,0,0,1,639.67,788.81Z"/><path class="cls-1" d="M1533,1304.05a1.8,1.8,0,1,1-1.89-1.7A1.8,1.8,0,0,1,1533,1304.05Z"/><path class="cls-1" d="M330.84,921.83a1.8,1.8,0,1,1-1.89-1.7A1.8,1.8,0,0,1,330.84,921.83Z"/><path class="cls-1" d="M274.62,452.85a1.79,1.79,0,1,1-1.88-1.7A1.8,1.8,0,0,1,274.62,452.85Z"/><path class="cls-1" d="M334.43,359.5a1.8,1.8,0,1,1-1.89-1.7A1.81,1.81,0,0,1,334.43,359.5Z"/><path class="cls-1" d="M3.59,293.39a1.8,1.8,0,1,1-1.89-1.7A1.8,1.8,0,0,1,3.59,293.39Z"/><path class="cls-1" d="M96.63,538.82a1.79,1.79,0,1,1-1.88-1.7A1.81,1.81,0,0,1,96.63,538.82Z"/><path class="cls-1" d="M220.13,688.19a1.8,1.8,0,1,1-1.89-1.7A1.81,1.81,0,0,1,220.13,688.19Z"/><path class="cls-1" d="M180.62,334.34a1.8,1.8,0,1,1-1.89-1.7A1.8,1.8,0,0,1,180.62,334.34Z"/><path class="cls-1" d="M1715.73,270.93a1.79,1.79,0,1,1-1.88-1.7A1.8,1.8,0,0,1,1715.73,270.93Z"/><path class="cls-1" d="M1800.48,466.45a1.8,1.8,0,1,1-1.89-1.7A1.8,1.8,0,0,1,1800.48,466.45Z"/><path class="cls-1" d="M332.63,592.9a1.79,1.79,0,1,1-1.88-1.7A1.8,1.8,0,0,1,332.63,592.9Z"/><path class="cls-1" d="M82.1,909.69a1.8,1.8,0,1,1-1.89-1.7A1.8,1.8,0,0,1,82.1,909.69Z"/><path class="cls-1" d="M278.22,1114.17a1.8,1.8,0,1,1-1.89-1.7A1.8,1.8,0,0,1,278.22,1114.17Z"/><path class="cls-1" d="M1673.71,940.48a1.8,1.8,0,1,1-1.89-1.7A1.8,1.8,0,0,1,1673.71,940.48Z"/><path class="cls-1" d="M1375.93,1046.41a1.8,1.8,0,1,1-1.89-1.7A1.81,1.81,0,0,1,1375.93,1046.41Z"/><path class="cls-1" d="M1772.54,756.62a1.8,1.8,0,1,1-1.89-1.71A1.81,1.81,0,0,1,1772.54,756.62Z"/><path class="cls-1" d="M1833.88,291.59a1.8,1.8,0,1,1-1.89-1.7A1.8,1.8,0,0,1,1833.88,291.59Z"/><path class="cls-1" d="M1647.6,709.92a1.79,1.79,0,1,1-1.88-1.71A1.81,1.81,0,0,1,1647.6,709.92Z"/><path class="cls-1" d="M294.34,236a1.8,1.8,0,1,1-1.89-1.7A1.81,1.81,0,0,1,294.34,236Z"/><path class="cls-1" d="M1673.71,174.33a1.8,1.8,0,1,1-1.89-1.7A1.79,1.79,0,0,1,1673.71,174.33Z"/><path class="cls-1" d="M1276.85,1.7A1.8,1.8,0,1,1,1275,0,1.79,1.79,0,0,1,1276.85,1.7Z"/><path class="cls-1" d="M608,48.09a1.8,1.8,0,1,1-1.89-1.71A1.81,1.81,0,0,1,608,48.09Z"/><path class="cls-1" d="M1511.51,59.91a1.8,1.8,0,1,1-1.89-1.7A1.79,1.79,0,0,1,1511.51,59.91Z"/><path class="cls-1" d="M1698,540.62a1.79,1.79,0,1,1-1.88-1.7A1.79,1.79,0,0,1,1698,540.62Z"/></g></g></svg>