<svg xmlns="http://www.w3.org/2000/svg" viewBox="0 0 77.01 76.91"><defs><style>.cls-1{fill:none;stroke:#fff;stroke-miterlimit:10;}.cls-2{fill:#fff;}</style></defs><title>icon-people</title><g id="Layer_2" data-name="Layer 2"><g id="PODPORIT"><path class="cls-1" d="M74.19,51.48A38,38,0,1,1,51.54,2.81,38,38,0,0,1,74.19,51.48Z"/><path class="cls-2" d="M44.75,19.65c-2.59-3.47-6.52-1.34-9.1,1h0c.27-.59-.6-1.1-.86-.51-1.65,3.66-2.3,9,.56,12.31s6.76.91,8.67-2S47,22.69,44.75,19.65Zm-1.2,9.64a8.27,8.27,0,0,1-2.91,3.16c-2.33,1.33-4.56-.09-5.48-2.29A11.39,11.39,0,0,1,35,22.58a.44.44,0,0,0,.34-.15c2.1-2.28,6.68-6,9-1.63C45.67,23.34,44.89,26.91,43.55,29.29Z"/><path class="cls-2" d="M34.6,28.87c-8.88,5.44-12.87,16.37-13.86,26.31a.51.51,0,0,0,.5.5h.62A5.72,5.72,0,0,1,22,54.25c-.23-.3,0-.83.14-2,1.39-8.63,5.29-17.8,13-22.52A.5.5,0,0,0,34.6,28.87Z"/><path class="cls-2" d="M44.89,29.29c-.49-.41-1.2.29-.71.71,6.65,5.52,11.89,16.48,8.08,25-.27.58.6,1.09.86.5C57.13,46.57,51.94,35.14,44.89,29.29Z"/><path class="cls-2" d="M24.36,20.61c-2.39-2-4.67.1-6.06,2.12a.5.5,0,0,0-1,0c-.05,3,.35,6.64,3.53,7.89,2.42,1,4.58-.63,5.26-3S26.3,22.23,24.36,20.61Zm.76,6.8C24.4,29.79,22,30.74,20,29c-1.43-1.29-1.69-3.24-1.71-5.1a.48.48,0,0,0,.58-.19c1.39-2.19,4-4.32,5.76-1.11A6.47,6.47,0,0,1,25.12,27.41Z"/><path class="cls-2" d="M20.82,28.77A27,27,0,0,0,12.43,44.7c-.09.63.87.9,1,.27a26.18,26.18,0,0,1,8.13-15.49C22,29,21.29,28.33,20.82,28.77Z"/><path class="cls-2" d="M24.91,29.44c-.48-.43-1.19.27-.71.71a12.26,12.26,0,0,1,3.87,6.94c.12.63,1.08.36,1-.27A13.11,13.11,0,0,0,24.91,29.44Z"/><path class="cls-2" d="M61.41,20.4c-2.36-1.11-4.43.17-6,1.89a.49.49,0,0,0-.38.43,21.51,21.51,0,0,0-1.58,2.12c-.35.54.52,1,.87.5.19-.29.39-.59.6-.89-.07,2.8.45,5.9,3.4,7s5.23-1.8,5.72-4.47C64.45,24.57,63.77,21.51,61.41,20.4Zm1.64,6.27c-.44,2.57-2.93,5.32-5.54,3.13-1.93-1.62-1.75-4.45-1.55-6.75,1.09-1.24,2.44-2.2,4.16-1.95C62.66,21.48,63.43,24.47,63.05,26.67Z"/><path class="cls-2" d="M56,29.94a19.87,19.87,0,0,0-4.37,8.52c-.15.62.81.89,1,.26a18.86,18.86,0,0,1,4.11-8.07C57.14,30.17,56.44,29.46,56,29.94Z"/><path class="cls-2" d="M61.34,30c-.49-.41-1.2.29-.71.71A14.94,14.94,0,0,1,66,43.23c0,.64,1,.64,1,0A15.93,15.93,0,0,0,61.34,30Z"/><path class="cls-2" d="M42.28,48.39l-2.92-7c-.25-.59-1.22-.33-1,.26l2.93,7C41.56,49.24,42.53,49,42.28,48.39Z"/><path class="cls-2" d="M43.93,40.13c-.44-1.59-2.23-3.07-3.92-2.25a2.37,2.37,0,0,0-.76,3.67c.45.46,1.16-.25.71-.7a1.37,1.37,0,0,1,.6-2.12c1.12-.38,2.14.69,2.41,1.67A.5.5,0,0,0,43.93,40.13Z"/><path class="cls-2" d="M47.07,38a2.53,2.53,0,0,0-3.3,1.45c-.24.6.73.85,1,.26a1.43,1.43,0,1,1,2.58,1.21c-.29.57.57,1.08.86.5A2.52,2.52,0,0,0,47.07,38Z"/><path class="cls-2" d="M47.3,41.25l-4,6.59a.5.5,0,0,0,.86.51l4-6.59A.5.5,0,0,0,47.3,41.25Z"/></g></g></svg>