<svg id="Layer_1" data-name="Layer 1" xmlns="http://www.w3.org/2000/svg" viewBox="0 0 191.6 252.22"><defs><style>.cls-1{fill:#fff;}</style></defs><title>beer-philosoph</title><g id="Layer_2" data-name="Layer 2"><g id="PODPORIT"><path class="cls-1" d="M144.87,220.08c-5.7.32-11.48-.58-17.3-.09a132.83,132.83,0,0,1-23-.1c-8.79-.82-17.79,1.11-19.57-9.83-1.23-7.55-.48-15.6-.64-23.22-.33-15.33-1.4-30.7-2.79-46-.75-8.25-.65-16.5-.65-24.78,0-3.12,1-7.29-.82-10.06-1.23-1.88-4.25-.11-3,1.78,1,1.53.43,3.91.34,5.61-.23,4.85,0,9.77,0,14.63,0,9.81,1.35,19.58,2.12,29.35,1.39,17.52,0,35.42,2,52.86.47,4.25,1.78,8.19,5.17,10.93,3.67,3,10.51,1.38,14.92,2.35,6.36,1.39,15,.64,21.51.35,7.38-.33,14.83.07,22.12-.33C147.43,223.45,147.13,220,144.87,220.08Z" transform="translate(0 0)"/><path class="cls-1" d="M153.45,103.45c-10.16-1.89-19.76,1.39-29.79.25-14.69-1.67-29.42,2.1-44.13.36-2.21-.26-3.06,3.14-.81,3.41,13,1.57,26.05-.58,39.14-.54,5.83,0,10.75.48,16.57-.41a56.11,56.11,0,0,1,18.51.39C155.16,107.32,155.67,103.86,153.45,103.45Z" transform="translate(0 0)"/><path class="cls-1" d="M160.18,177.74c0-25-2-49.59-2.91-74.46-.08-2.25-3.57-2-3.49.3.68,18.79,2.92,37.48,2.92,56.32,0,9.88-.16,19.7-.5,29.58-.27,7.87,2,27.36-8.34,29.81a1.79,1.79,0,0,0-2.83,1.42v.59a1.75,1.75,0,0,0,1.81,1.69h0c6.77-.71,10.27-3.72,12.17-10.23,1.14-3.91.58-10.22.59-14.45C159.61,191.44,160.18,184.59,160.18,177.74Z" transform="translate(0 0)"/><path class="cls-1" d="M189.34,135.3c0-4.68-.36-8.57-5.39-10-8.21-2.35-17.37.52-25.67-.8-2.21-.35-3.07,3-.84,3.4,5.45.87,10.71-.08,16.18.12,2.64.09,5.27.4,7.9.49,5.67.2,4.35,8.71,4.35,11.89,0,6.76-.22,13.44-.66,20.19-.32,4.84.65,11.68-.94,16.19-.74,2.11,2.42,3.61,3.17,1.49,2.11-6,1-13.5,1.4-19.82C189.34,150.71,189.34,143.05,189.34,135.3Z" transform="translate(0 0)"/><path class="cls-1" d="M185.87,173.74c-1,5.42-3.2,8.6-8.71,10.13-4.17,1.17-12.19,3.7-16.58,2.42-2.16-.63-2.94,2.79-.78,3.41,3.16.92,6-.09,9.19-.66,3.71-.66,7.35-1.32,11-2.33,6-1.67,8.3-6.75,9.37-12.45C189.75,172.05,186.29,171.52,185.87,173.74Z" transform="translate(0 0)"/><path class="cls-1" d="M179.73,136.36c-2.58-5.7-15.38-3.3-20-2a1.75,1.75,0,1,0,1,3.36c3.28-1,7.32-.93,10.73-1.1,4.91-.24,5.12,1.84,5.12,6,0,7-.58,13.95-.58,20.95,0,2.26,3.48,1.93,3.48-.31,0-5.92.32-11.77.57-17.67C180.11,143.16,180.8,138.72,179.73,136.36Z" transform="translate(0 0)"/><path class="cls-1" d="M176,162.59c-.72,4.6-2.22,8.18-5.85,11.28-2,1.75-7,2.69-9.55,1.92-2.16-.65-2.91,2.77-.76,3.42,3.92,1.18,10-.46,13-3.05,4-3.4,5.81-7.84,6.6-12.91C179.75,161,176.32,160.36,176,162.59Z" transform="translate(0 0)"/><path class="cls-1" d="M72.46,78.73c-3.23,3-5.31,9.43-3.73,13.64A6.23,6.23,0,0,0,70,94.68a5.64,5.64,0,0,0-2.35-.78c-2-.31-3.86-.67-5.71.34-11.48,6.25-12.34,24.28-2.76,32.84,3.25,2.91,21.9,11.88,20.51.82-.28-2.21-3.78-2.19-3.5,0,.5,4-8.75.44-9.42.18-4.12-1.59-6.89-5.15-8.76-9-4.46-9-.2-26.7,12.77-19.4a1.75,1.75,0,0,0,2.32-.82v0a5.75,5.75,0,0,0,.13-4.33C71.33,89,71.24,84.4,76.12,80A8.75,8.75,0,0,1,90.8,85c.45,2.19,3.93,1.83,3.48-.38C92,73.52,80.3,71.59,72.46,78.73Z" transform="translate(0 0)"/><path class="cls-1" d="M136.16,75.39c-5.21-12-13.33-19-26.87-19-9.75,0-24.74,8.37-26.62,18.62-.4,2.21,3,3.08,3.4.85,1.78-9.62,15.23-15,23.58-16,11.74-1.45,19.12,7.32,23.25,16.78C133.8,78.72,137.07,77.46,136.16,75.39Z" transform="translate(0 0)"/><path class="cls-1" d="M163.78,78.24c-.8-2.47-2.5-5.29-5.22-6a9.31,9.31,0,0,0-6.13.57c.33-10.53-14.32-13.41-21.47-6.2a1.75,1.75,0,1,0,2.48,2.47c5.41-5.46,17.61-3.57,15.11,6.08-.36,1.37,1.21,2.25,2.35,1.9,3.32-1,7-3.34,9.27,1.36,1.66,3.44.2,8.22-3.52,9.37-2.16.67-.89,3.93,1.25,3.27C163.15,89.45,165.44,83.33,163.78,78.24Z" transform="translate(0 0)"/><path class="cls-1" d="M163.24,83.17c-2.1-.8-3.54,2.39-1.43,3.19,6.09,2.34,11.58,5.82,10.73,13.28a11.19,11.19,0,0,1-16.15,8.68c-2-1-3.73,2-1.72,3.05,8.74,4.57,17.64-.32,20.81-9.17C178.89,92.7,171.1,86.18,163.24,83.17Z" transform="translate(0 0)"/><path class="cls-1" d="M129.69,132.6c-2.25,0-1.9,3.48.35,3.48S131.94,132.6,129.69,132.6Z" transform="translate(0 0)"/><path class="cls-1" d="M138.43,207.84h-.87a1.75,1.75,0,0,0-1.56,1.92,1.78,1.78,0,0,0,1.92,1.56h.88a1.75,1.75,0,0,0,1.55-1.93h0A1.78,1.78,0,0,0,138.43,207.84Z" transform="translate(0 0)"/><path class="cls-1" d="M60.3,77.08c-3.06-5.29-4.16-10.2-3.07-16.27.4-2.22-3.06-2.71-3.46-.49a24.45,24.45,0,0,0,2.66,17c.15.27.31.54.47.8-1.13-.39-2.22-.64-3.39-1C49,76,45.92,71.33,44.18,67.26c-.88-2.07-3.89-.28-3,1.77a22.73,22.73,0,0,0,8,10c2.36,1.64,7.34,3.51,10.17,3C61.82,81.53,61.22,78.66,60.3,77.08Z" transform="translate(0 0)"/><path class="cls-1" d="M80.19,27.2c-2.76-9.89-7.87-16.86-16.57-22.29-10-6.24-19-5.31-30.37-3.8C12.79,3.84-3.61,19.41.69,40.92,2.27,48.84,8,57.7,14.23,62.79c7.05,5.78,19.85,6.46,28.5,7.1,2.24.17,2.12-3.33-.11-3.49-7.28-.54-15.81-1.65-22.54-4.51-7.59-3.22-12.2-11.73-15.19-19C-3.45,22.34,16,7.89,33.67,4.59,40.63,3.28,50.2,2,56.73,5c8.74,4.1,15,9.8,18.74,18.75a38.77,38.77,0,0,1,2.09,21.07c-1.13,6.66-6,13.15-12.94,14.72-3.1.7-7.26,0-10.49.43-2.24.29-1.83,3.76.41,3.48C65.29,62.1,71.9,63.23,78.21,53,82.76,45.59,82.45,35.27,80.19,27.2Z" transform="translate(0 0)"/><path class="cls-1" d="M32.23,93.05c-2.46-.57-5-.67-7.11-2.16-1.85-1.29-3.47,1.82-1.64,3.09,2.42,1.69,5.27,1.85,8.05,2.5C33.73,97,34.43,93.56,32.23,93.05Z" transform="translate(0 0)"/><path class="cls-1" d="M32,128.67l-4,1.07c-.76.2-1.52.37-2.28.54s-1.29.63-1.95.65a1.75,1.75,0,0,0,.06,3.5h0c1.59,0,3.08-.82,4.62-1.2s3.08-.82,4.62-1.21C35.18,131.46,34.13,128.12,32,128.67Z" transform="translate(0 0)"/><path class="cls-1" d="M128.12,31.87a50.18,50.18,0,0,1-.44,5.2c-.18,1.73.1,3.44-.52,5-.84,2.07,2.23,3.75,3.08,1.66s.68-3.8.86-5.88.48-4.06.51-6.12C131.65,29.43,128.16,29.62,128.12,31.87Z" transform="translate(0 0)"/><path class="cls-1" d="M166.21,50.24c-.79,1.22-1.5,2.49-2.23,3.75-.32.55-.65,1.1-1,1.64a5.1,5.1,0,0,0-.3.73,1.74,1.74,0,0,0,.43,3.41,2.67,2.67,0,0,0,2.8-2.15c.15-.9,1.2-2.07,1.66-2.86.56-1,1.13-2,1.76-2.95C170.57,49.92,167.43,48.37,166.21,50.24Z" transform="translate(0 0)"/><path class="cls-1" d="M189,71.14c-2.16,1.67-4,4-6.56,5-2,.88-1,4.23,1,3.35,2.95-1.26,4.94-3.54,7.44-5.46C192.68,72.7,190.77,69.76,189,71.14Z" transform="translate(0 0)"/><path class="cls-1" d="M128.87,167.68a2.64,2.64,0,0,0-2.18-.17c-.54.3-.56.29-.06,0-.95,0-1.9-.25-2.84-.36-3.8-.46-8,.79-11.88.84-2.37,0-2.31,3.72.08,3.69a85.73,85.73,0,0,0,9.47-.77,17.48,17.48,0,0,1,4.51.23l1.37.07h.51a1.84,1.84,0,0,0,1-3.53Z" transform="translate(0 0)"/><path class="cls-1" d="M116.72,149.52h-.62a1.84,1.84,0,0,0-1.68,2,1.88,1.88,0,0,0,2,1.69H117a1.85,1.85,0,0,0-.28-3.69Z" transform="translate(0 0)"/><path class="cls-1" d="M96.27,129.24a2.28,2.28,0,0,0-2.4,2.15,2.47,2.47,0,0,0,0,.61,1.88,1.88,0,0,0,2.36,1.1,2.07,2.07,0,0,0,1.49-1.73A1.87,1.87,0,0,0,96.27,129.24Z" transform="translate(0 0)"/><path class="cls-1" d="M106,222.21c-.89-2.18-4.44-1.19-3.54,1,1.43,3.55.24,9.45.24,13.24,0,2.61.94,7-1.68,8.73-1.69,1.14-3.24,2.52-4.92,3.69-2,1.36.16,4.38,2.11,3,3.85-2.67,8-4.64,8.17-9.66.11-4.09,0-8.2,0-12.29C106.41,227.53,107,224.52,106,222.21Z" transform="translate(0 0)"/><path class="cls-1" d="M139,247.46a54.28,54.28,0,0,0-4.35-4.23v-.17c.29-1.54,0-3.61.16-5.11a92.76,92.76,0,0,0,.49-15.27,1.88,1.88,0,0,0-2-1.78,1.93,1.93,0,0,0-1.2.52l-.3.3a1.68,1.68,0,0,0-.18,2.27,91.17,91.17,0,0,1-.22,9.78c-.13,2.37.29,6.63-.52,8.86-1.13,3.08,3.9,5.9,5.64,7.64S140.66,249.13,139,247.46Z" transform="translate(0 0)"/><path class="cls-1" d="M83.09,197.4l-.29-.28a1.63,1.63,0,0,0-1.68-.45c-5.37-1.29-8.22-4.59-12.3-8.3-4.7-4.27-8.52-9.26-12.9-13.82-1.65-1.72-4,1.14-2.36,2.84,8.09,8.41,15.46,21,27.82,23.13a1.86,1.86,0,0,0,1.71-3.12Z" transform="translate(0 0)"/><path class="cls-1" d="M101.07,152.6c-2.87,1.6-7.41,1.52-10.39.21-2.16-.95-3.94,2.28-1.76,3.24a16.76,16.76,0,0,0,14.23-.4C105.23,154.49,103.13,151.45,101.07,152.6Z" transform="translate(0 0)"/><path class="cls-1" d="M142.06,151.17c-3.1,1.54-8.23,2.11-11.38.41-2.1-1.12-3.87,2.11-1.77,3.24,4,2.16,10.46,1.78,14.45-.2C145.47,153.57,144.2,150.11,142.06,151.17Z" transform="translate(0 0)"/><path class="cls-1" d="M102.89,188.89c-2.38,0-2.09,3.68.28,3.68S105.26,188.89,102.89,188.89Z" transform="translate(0 0)"/><path class="cls-1" d="M120.11,196.58l-.3.3c-1.7,1.68,1.06,4.14,2.74,2.47l.31-.31C124.55,197.35,121.79,194.91,120.11,196.58Z" transform="translate(0 0)"/><path class="cls-1" d="M140.71,181.82h-.31a1.84,1.84,0,0,0,.31,3.67H141a1.83,1.83,0,0,0,1.68-2h0A1.87,1.87,0,0,0,140.71,181.82Z" transform="translate(0 0)"/><path class="cls-1" d="M129.79,169.83c-.35-2.34-4-2.09-3.68.27.76,5.2-2.64,7.83-7.51,7.87-3.33,0-4.6-2.61-5-5.46-.18-1.47.15-2.08-.83-3.37-1.44-1.89-4.07.72-2.64,2.58-.33-.43-.09,2,0,2.4a13.87,13.87,0,0,0,1.39,3.9c1.27,2.53,4.71,3.53,7.29,3.63C125.7,181.93,130.8,176.76,129.79,169.83Z" transform="translate(0 0)"/><path class="cls-1" d="M98.31,169.66a2.35,2.35,0,0,0-1.21-1.34c-2.06-.93-3.63,2-1.91,3.11a1.77,1.77,0,0,0,2,.58,1.84,1.84,0,0,0,1.12-2.35Z" transform="translate(0 0)"/><path class="cls-1" d="M98.19,206a1.74,1.74,0,0,0-.6,2,1.85,1.85,0,0,0,2.34,1.16,2.4,2.4,0,0,0,1.39-1.28A1.83,1.83,0,0,0,98.19,206Z" transform="translate(0 0)"/><path class="cls-1" d="M110.55,118.74l-.17-.12c-1.37-1.54-4.12.27-2.92,2.18a2.59,2.59,0,0,0,.67.73,1.85,1.85,0,0,0,2.42-2.79Z" transform="translate(0 0)"/><path class="cls-1" d="M140.78,120.64a1.78,1.78,0,0,0-1-1.48l-.2-.11a2.11,2.11,0,0,0-.74-.14h-.31c-2.08,0-2.18,3.6-.09,3.66H139a1.57,1.57,0,0,0,1.61-1.21A2,2,0,0,0,140.78,120.64Z" transform="translate(0 0)"/></g></g></svg>