<svg xmlns="http://www.w3.org/2000/svg" viewBox="0 0 77.01 76.91"><defs><style>.cls-1{fill:none;stroke:#fff;stroke-miterlimit:10;}.cls-2{fill:#fff;}</style></defs><title>icon-coffee</title><g id="Layer_2" data-name="Layer 2"><g id="PODPORIT"><path class="cls-1" d="M74.19,51.48A38,38,0,1,1,51.54,2.81,38,38,0,0,1,74.19,51.48Z"/><path class="cls-2" d="M32.08,52.53c-3.1-.88-4.79-4-6.16-7.19a20.62,20.62,0,0,1-1.6-6.45l0-.55c-.13-1.45-.27-3.26.53-4.47a.7.7,0,0,1,.58-.32.76.76,0,0,1,.66.38.62.62,0,0,1-.05.65c-.7,1.06-.38,3.65-.23,4.89A20.9,20.9,0,0,0,27,44.28c1.17,3,2.72,6.14,5.41,6.89a.69.69,0,0,1,.5.78.67.67,0,0,1-.65.6Z"/><path class="cls-2" d="M32.34,51.45c-3-.84-4.56-4.44-5.59-7.06a20.36,20.36,0,0,1-1.25-4.85c-.17-1.34-.5-4,.27-5.12.29-.44-.43-.84-.73-.4-.85,1.29-.54,3.39-.44,4.86a20.49,20.49,0,0,0,1.58,6.35c1.18,2.77,2.82,6.13,6,7C32.67,52.4,32.86,51.59,32.34,51.45Z"/><path class="cls-2" d="M40.41,52.94c-.24,0-.49,0-.73,0-.66,0-1.31-.08-2-.11s-1.32,0-2-.1a5.43,5.43,0,0,0-.57,0c-.35,0-.7,0-1,0s-.72,0-1.08,0-.6,0-.9,0a.69.69,0,0,1-.54-.52.85.85,0,0,1,.1-.76.77.77,0,0,1,.59-.27.61.61,0,0,1,.48.21,11.11,11.11,0,0,1,1.75-.08c1.94,0,4.59.13,4.9.17a9.24,9.24,0,0,0,1,.06,21,21,0,0,0,2.38-.19,22.43,22.43,0,0,1,2.47-.18h.4a.71.71,0,0,1,.68.74.64.64,0,0,1-.65.66h-.4a19.9,19.9,0,0,0-2.44.2A22.77,22.77,0,0,1,40.41,52.94Z"/><path class="cls-2" d="M45.72,51.43c-2.12-.08-4.22.57-6.33.31-.47-.06-6.81-.34-6.74,0-.11-.52-.91-.29-.8.24l0,.17a.39.39,0,0,0,.3.29c1.2.15,2.36-.11,3.58,0s2.62.11,3.93.21c2,.16,4-.45,6-.37C46.27,52.29,46.25,51.46,45.72,51.43Z"/><path class="cls-2" d="M45.54,52.77a.72.72,0,0,1-.63-.42.7.7,0,0,1,.09-.76,30.24,30.24,0,0,0,4.07-7.4l.27-.63c1.26-2.9,3-6.86,1-9.58a.59.59,0,0,1-.07-.66.75.75,0,0,1,.66-.39.68.68,0,0,1,.57.29c2.28,3.1.48,8-.4,10l-.46,1A36.27,36.27,0,0,1,46,52.52a.64.64,0,0,1-.5.25Z"/><path class="cls-2" d="M51.27,33.39c-.32-.43-1,0-.72.43,2.25,3,.05,7.53-1.22,10.48a30.91,30.91,0,0,1-4.11,7.47c-.33.41.26,1,.6.58,2.24-2.79,3.56-6,5-9.28C52.07,40.31,53.25,36.08,51.27,33.39Z"/><path class="cls-2" d="M25.45,35.13a.76.76,0,0,1-.62-.34.71.71,0,0,1,0-.68,1.76,1.76,0,0,1,1.78-1,8,8,0,0,1,1.36.16,7.66,7.66,0,0,0,1,.12h.74A69.76,69.76,0,0,0,36.81,33a13.92,13.92,0,0,1,1.58-.07l2.55,0,1.1,0c.42,0,.82,0,1.23,0a8.43,8.43,0,0,1,1.21.07c.25,0,.51,0,.78,0,.57,0,1.18-.06,1.8-.11s1.3-.11,1.93-.11a6.43,6.43,0,0,1,1.76.21h.06A.63.63,0,0,1,51,33l.11.37.12-.25a.64.64,0,0,1,.37.73.75.75,0,0,1-.71.57h-.06l-.23-.06a2.68,2.68,0,0,0-1-.15c-.39,0-.81,0-1.19.06s-.58,0-.8,0l-1,0-1.25,0-1.17,0c-.61-.05-1.24-.06-1.86-.06l-1.85,0-1.85,0h0a14.84,14.84,0,0,0-2.35.24c-.43.07-.87.14-1.31.18a8.11,8.11,0,0,1-.86.05c-.34,0-.68,0-1,0l-1,0h-.45c-.9,0-1.65.09-2.4.09l-1,0a4.48,4.48,0,0,1-.51-.06,7.71,7.71,0,0,0-1.1-.12c-.39,0-.56.08-.59.16A.63.63,0,0,1,25.45,35.13Z"/><path class="cls-2" d="M51.14,33.35l-.24-.11a.47.47,0,0,0-.23,0c-1.86-.53-4.36.2-6.23,0a23.93,23.93,0,0,0-3.49,0c-1.36,0-2.76-.1-4.11,0a65.58,65.58,0,0,1-7.94.44c-1.2,0-3.21-.88-3.86.56-.21.49.51.89.73.4s2-.17,2.48-.14a31.4,31.4,0,0,0,3.36-.06c1.09,0,2.22.13,3.31,0A34,34,0,0,1,38.57,34c1.86,0,3.79-.13,5.62,0,1.14.08,2.27,0,3.41,0a9.72,9.72,0,0,1,3.14.06C51.22,34.29,51.63,33.59,51.14,33.35Z"/><path class="cls-2" d="M52.07,46.62a10.12,10.12,0,0,1-1.68-.18l-.86-.13a.6.6,0,0,1-.55-.67.73.73,0,0,1,.72-.7,5.07,5.07,0,0,1,1,.22,4.25,4.25,0,0,0,1.07.22h0a3.75,3.75,0,0,0,2.56-1.26,5.72,5.72,0,0,0,1.51-3,3.22,3.22,0,0,0-.26-2.47,2.61,2.61,0,0,0-1.8-1h-.28c-.38,0-.64,0-.82,0a.66.66,0,0,1-.51.23.74.74,0,0,1-.57-.27.68.68,0,0,1-.14-.57c.1-.47.36-.7.69-.72s.81-.06,1.23-.06a4.13,4.13,0,0,1,3,1,4.21,4.21,0,0,1,.89,3.94,6.94,6.94,0,0,1-2.48,4.48,4.12,4.12,0,0,1-2.7,1Z"/><path class="cls-2" d="M56.16,37.39c-1.08-1-2.66-1-4-.85a.41.41,0,0,0-.39.32l0,.17c-.1.52.7.72.81.19,0,.15,1.12.11,1.27.13,2.22.37,2.68,1.84,2.29,3.77a6,6,0,0,1-1.58,3.2,3.93,3.93,0,0,1-2.77,1.34c-.68,0-1.34-.35-2-.43-.52-.07-.72.73-.19.8,2,.27,3.25.77,5-.64A6.74,6.74,0,0,0,57,41.08,4,4,0,0,0,56.16,37.39Z"/><path class="cls-2" d="M32.84,30.58a.73.73,0,0,1-.62-.35.67.67,0,0,1,0-.67c.77-1.6,1-2.54,0-4.24L32,24.81a9.75,9.75,0,0,1-.81-1.73,3.47,3.47,0,0,1,1-3.63.67.67,0,0,1,.49-.23.72.72,0,0,1,.64.44.69.69,0,0,1-.11.75c-1.21,1.35-.55,2.53.22,3.9a7.34,7.34,0,0,1,1,2.32A5.29,5.29,0,0,1,33.52,30l-.1.2a.64.64,0,0,1-.58.37Z"/><path class="cls-2" d="M34,26.68c-.37-2.27-3.16-4.18-1.13-6.46.36-.4-.24-1-.59-.58A3.23,3.23,0,0,0,31.41,23a13.86,13.86,0,0,0,1.07,2.19c.93,1.73.81,2.75,0,4.49-.23.48.49.89.73.4A5.36,5.36,0,0,0,34,26.68Z"/><path class="cls-2" d="M38.21,30.37a.73.73,0,0,1-.69-.56.63.63,0,0,1,.33-.74,2.11,2.11,0,0,0,1-1.46,7.13,7.13,0,0,0-1.14-4.87,6.09,6.09,0,0,1-1.31-2.85,4.75,4.75,0,0,1,.95-3.3,1.87,1.87,0,0,1,1.4-.67.68.68,0,0,1,.7.69.67.67,0,0,1-.67.7c-.54,0-.88,1.12-.94,1.71a3.63,3.63,0,0,0,.94,2.79l.29.41a5.76,5.76,0,0,1,1,2.44c.31,1.62.53,4.5-1.56,5.62a.68.68,0,0,1-.33.09Z"/><path class="cls-2" d="M39.82,24.71a5.5,5.5,0,0,0-.93-2.33c-.74-1.09-1.45-1.81-1.28-3.39.06-.61.43-1.95,1.22-2a.42.42,0,0,0,0-.83c-1.61,0-2.2,2.36-2.07,3.66A5.63,5.63,0,0,0,38,22.57c1.09,1.54,2.26,5.53,0,6.75-.47.25,0,1,.43.71C40.24,29,40.16,26.46,39.82,24.71Z"/><path class="cls-2" d="M44.51,30a.69.69,0,0,1-.63-.51.71.71,0,0,1,.26-.8c1.37-.95.79-3.18,0-4.38a4.78,4.78,0,0,0-.63-.68,3.87,3.87,0,0,1-.94-1.14c-.49-1.11.09-2.59,1.7-4.27a.64.64,0,0,1,.48-.21.74.74,0,0,1,.66.44.66.66,0,0,1-.14.74c-1,1.08-1.75,2-1,3.15a3.25,3.25,0,0,0,.36.4,3.39,3.39,0,0,1,.32.35,5.88,5.88,0,0,1,1.32,2.61,4,4,0,0,1-1.33,4.17.7.7,0,0,1-.39.13Z"/><path class="cls-2" d="M46,25.74a5.72,5.72,0,0,0-1.26-2.49,9.86,9.86,0,0,1-.69-.76c-.91-1.39.06-2.49,1-3.5.37-.39-.22-1-.59-.58-.85.89-2.24,2.6-1.64,3.95.29.66,1.14,1.2,1.54,1.78.84,1.22,1.54,3.68,0,4.78-.44.3,0,1,.42.71A3.72,3.72,0,0,0,46,25.74Z"/><path class="cls-2" d="M29.6,59a61.25,61.25,0,0,1-6.39-.32.61.61,0,0,1-.57-.65.75.75,0,0,1,.74-.72,51.51,51.51,0,0,0,5.27.26c2.68,0,5.41-.18,8.05-.34L40.12,57c.92-.07,1.85-.13,2.75-.14.55,0,1.07,0,1.59.09s1,.07,1.5.07a8.71,8.71,0,0,0,.87,0c.51-.06,1-.15,1.54-.25s1.25-.23,1.87-.28c.2,0,.41,0,.61,0a16.57,16.57,0,0,1,1.72.12,15.44,15.44,0,0,0,1.67.12h0c.57,0,.86.29.87.69a.68.68,0,0,1-.67.7H54.2c-.56,0-1.13,0-1.69-.09s-1.1-.08-1.64-.08a7.39,7.39,0,0,0-1.33.11,29.28,29.28,0,0,1-3,.42c-.22,0-.44,0-.67,0-.53,0-1,0-1.57-.09s-1-.08-1.54-.08h-.48L41,58.34c-.87,0-1.73.08-2.58.16C35.17,58.81,32.28,59,29.6,59Z"/><path class="cls-2" d="M54.42,56.92c-1.39,0-2.77-.33-4.16-.21-1.13.09-2.27.4-3.4.53a33.12,33.12,0,0,1-4-.11c-1.26,0-2.57.13-3.83.2-5.2.3-10.39.78-15.61.22-.52,0-.73.75-.19.81a76,76,0,0,0,15.16-.14c1.29-.12,2.61-.15,3.9-.23,1.44-.09,2.82.24,4.26.13a29.1,29.1,0,0,0,2.93-.42c1.63-.3,3.29.09,5,0A.42.42,0,0,0,54.42,56.92Z"/></g></g></svg>