<svg xmlns="http://www.w3.org/2000/svg" viewBox="0 0 36.22 30.61"><defs><style>.cls-1{fill:#fff;}</style></defs><title>icon-heart</title><g id="Layer_2" data-name="Layer 2"><g id="PODPORIT"><path class="cls-1" d="M35,15.12A10.3,10.3,0,0,0,31.63,1.66C26.57-1.64,20.24.23,17.11,5.12A9.24,9.24,0,0,0,3.53,3.39c-4.64,4-4.44,10.42-1,14.93a.67.67,0,0,0,.24.45l.44.35.11.13a.73.73,0,0,0,.28.2,129.67,129.67,0,0,0,15.4,11c.71.43,1.34-.41,1.06-1A104.76,104.76,0,0,0,35.34,16.37.77.77,0,0,0,35,15.12ZM18.8,28.52A124.9,124.9,0,0,1,4.32,18C1,14.4.29,8.86,3.93,5.12A7.75,7.75,0,0,1,16.14,6.39a.76.76,0,0,0,1.05.24.71.71,0,0,0,1-.28c2.69-4.67,8.5-6.38,13-3.12C35.42,6.32,35.69,12,32.67,16a.6.6,0,0,0,0,.84A102.22,102.22,0,0,1,18.8,28.52Z"/></g></g></svg>