<svg xmlns="http://www.w3.org/2000/svg" viewBox="0 0 107.39 109.29"><defs><style>.cls-1{fill:#fff;fill-rule:evenodd;}</style></defs><title>logo_slh</title><g id="Layer_2" data-name="Layer 2"><g id="Layer_1-2" data-name="Layer 1"><path class="cls-1" d="M67.47,3.72c.08,2.94,0,6,.08,9-.57,0-1.2,0-1.79-.07-.35-6.42-3.92-9.11-10.43-9.53a13,13,0,0,0-2.72,0A10.13,10.13,0,0,0,46,7.88c-1.39,2.18-2.43,6.06-.78,8.92,1.35,2.34,3.91,3.66,6.61,4.78,8.13,3.37,17.75,5,18.13,16.07h2.77c.07-4.66,0-10,0-15A15.16,15.16,0,0,0,72.34,18c-.64-1.81-2.65-2.07-5-2V14.19h16V16c-2.27-.05-4.29.24-5.06,1.75-.69,1.34-.62,3.83-.62,6V56.91c0,2.3-.06,4.45.78,5.84s2.71,1.72,4.9,1.71V66.2h-16V64.46c2,0,3.89-.22,4.7-1.6s.67-3.3.67-5.29V39.71H69.88A15.66,15.66,0,0,1,56.81,53.25c.06,5.55-.23,11.23-.23,16.81,0,2.4-.25,5.33,1.56,5.91a14,14,0,0,0,3.73.2c3.9,0,8,.17,11.75,0,2.67-.14,4.27-.92,5.45-2.41a21,21,0,0,0,2.6-5.21,17.43,17.43,0,0,1,1.79,0c-.46,3.31-.89,6.65-1.36,10H46.15V76.2c1.67-.18,4,.36,4.79-.89.61-1,.31-3.79.31-5.33V53.14a31.71,31.71,0,0,1-11.79-3.9V39.75c-1.32-.09-2.81,0-4.2,0-.07,5.61,0,11.92,0,17.9,0,2,0,3.93.78,5.18.86,1.43,2.79,1.64,4.9,1.67V66.2H25V64.46c2.18,0,4.23-.35,4.9-1.95.52-1.25.47-3.39.47-5.29V22.79c0-1.94,0-4.05-.55-5.18C29,16.18,27.09,15.93,25,16V14.19H40.36a14.26,14.26,0,0,1,3.81-9.73A13.39,13.39,0,0,1,53.39,0a24,24,0,0,1,7.94,1A44.16,44.16,0,0,1,67.47,3.72ZM36,17.38c-.72,1-.8,2.69-.82,4.43-.06,5.23,0,11,0,15.84h16V27.18C46,25.1,41.28,22.53,40.51,16,38.67,16,36.93,16.1,36,17.38ZM56.81,29.24s0,.07,0,.12v8.29h9.14C65.05,32.69,61,30.91,56.81,29.24ZM41.64,39.82c.46,6.24,3.14,10.25,9.61,10.48V39.71H41.68S41.64,39.77,41.64,39.82Zm15.13,0v10.4a12.57,12.57,0,0,0,6.34-3.55,10,10,0,0,0,2.92-7H56.81S56.77,39.77,56.77,39.82Z"/><path class="cls-1" d="M14.41,90.72c.13,1.08.07,2.9.07,4.35a3.62,3.62,0,0,0,.08,1.37c.12.17.42.13.55.27-.1.2-.62.12-.94.12s-.77.06-1-.08c0-.21.34-.11.47-.27a8.68,8.68,0,0,0,.07-2.58,9.57,9.57,0,0,0-.11-2.52c-.15-.16-.42.13-.47,0s.26-.27.47-.35A3.43,3.43,0,0,1,14.41,90.72Z"/><path class="cls-1" d="M59.81,90.72V93.6A8.85,8.85,0,0,0,60,96.32c.19.07.42-.16.43,0s-.34.3-.54.39a1.81,1.81,0,0,1-.78.23v-.46a1.92,1.92,0,0,1-1,.46c-2.32,0-2-4.69.58-4.17a1.82,1.82,0,0,1,.47.28c-.06-.57.13-1.38-.16-1.71-.19-.06-.33.12-.43,0s.25-.29.47-.39A2.17,2.17,0,0,1,59.81,90.72ZM58.06,93.1c-1.26.21-1.08,3.35.31,3.34.32,0,.45-.21.7-.36C59,94.82,59.43,92.85,58.06,93.1Z"/><path class="cls-1" d="M61.21,90.91c.66-.73,1.22.74.39.74C61.26,91.65,61.07,91.33,61.21,90.91Z"/><path class="cls-1" d="M67.51,90.72A41.49,41.49,0,0,1,67.59,95a4.48,4.48,0,0,0,0,1.4c.1.2.4.17.54.32-.1.2-.61.12-.93.12s-.74.06-.93-.08c0-.21.35-.12.46-.27a8.41,8.41,0,0,0,.08-2.54,14.84,14.84,0,0,0-.08-2.53c-.16-.2-.48.12-.54-.11s.34-.23.54-.31A2.32,2.32,0,0,1,67.51,90.72Z"/><path class="cls-1" d="M3.59,90.88a5.49,5.49,0,0,1,0,2.06c-.23-.12-.17-.44-.23-.63a1.51,1.51,0,0,0-1.72-1,.86.86,0,0,0-.23,1.55c.78.65,2.43,1,2.61,2.14.26,1.71-1.65,2.42-3.27,1.6-.23,0-.12.35-.35.35a5.33,5.33,0,0,1,0-2c.27.19.2.53.35.82.37.75,2,1.31,2.45.28A1,1,0,0,0,3,95c-.61-.73-1.83-.87-2.45-1.71C-.33,92.13.87,90.55,2.5,91c.22,0,.49.31.7.27S3.35,91,3.59,90.88Z"/><path class="cls-1" d="M20.28,90.91c.51,0,.76.58,1.17.82.47-.21.64-.73,1.2-.85-.22.51-.52.94-.77,1.43h-.82C20.82,91.82,20.55,91.36,20.28,90.91Z"/><path class="cls-1" d="M50,91.1c-.08.22-.41.09-.62.2s-.12.14-.23.19c-.06,1.48-.06,3.23,0,4.71a2.79,2.79,0,0,0,1.71.19,1.21,1.21,0,0,0,.93-.57c.15-.23.21-.49.43-.63.09.45-.32,1.08-.39,1.64-1.4-.06-3,.1-4.35-.08,0-.21.5-.11.66-.27.29-.33.12-1.7.12-2.5,0-1.29.36-2.87-.78-2.8V91.1s0-.07,0-.07A15.36,15.36,0,0,1,50,91.1Z"/><path class="cls-1" d="M84.67,91.1c-.1.23-.59.07-.7.28a9.47,9.47,0,0,0-.12,2.25c.77.09,1.7,0,2.53,0-.06-.59.25-1.73,0-2.21-.16-.28-.41-.16-.7-.32,0-.21.37-.11.54-.11a8.12,8.12,0,0,1,1.87.07c-.09.23-.58.07-.7.28a10.77,10.77,0,0,0-.11,2.48,7.9,7.9,0,0,0,.07,2.49c.17.32.54.19.74.36,0,.21-.36.11-.54.12a8.75,8.75,0,0,1-1.87-.08c.12-.23.38-.11.54-.2.46-.27.14-1.74.24-2.53H83.89c.06.65-.24,1.81,0,2.33.16.31.46.18.74.36,0,.21-.37.11-.55.12a8.62,8.62,0,0,1-1.86-.08c0-.21.5-.1.66-.27.29-.34.12-1.66.12-2.46a9.34,9.34,0,0,0,0-2.53c-.12-.25-.49-.26-.74-.31V91.1A8.11,8.11,0,0,1,84.67,91.1Z"/><path class="cls-1" d="M35.73,91.61c.18.27,0,.88.07,1.28.28,0,.65,0,.86,0v.19c-.12.17-.57,0-.82.07.09.65-.36,3,.24,3.15.38.09.3-.35.7-.34-.07.66-1,1.17-1.48.7s0-2.45-.24-3.46c-.1-.12-.47,0-.58-.08.06-.29.34-.31.51-.48a3,3,0,0,0,.62-1.08Z"/><path class="cls-1" d="M5.81,92.77v.83a1.36,1.36,0,0,1,1.79-.71c1.43.78,1,4.08-.94,4a1.28,1.28,0,0,1-.85-.31c.1.53-.18,1.32.08,1.67s.36.07.54.27c0,.21-.31.12-.47.12a5.57,5.57,0,0,1-1.55-.07c.07-.24.52-.1.62-.32.07-.76,0-1.63,0-2.48A8.94,8.94,0,0,0,5,93.4c-.19-.12-.41.12-.5,0s.34-.23.54-.31A1.94,1.94,0,0,1,5.81,92.77Zm0,2.38c0,.94.2,1.73,1.13,1.44,1.09-.34.94-3.3-.36-3.15C5.72,93.53,5.81,94.19,5.81,95.15Z"/><path class="cls-1" d="M10.43,92.82a1.79,1.79,0,0,1,2.19,1.55,2.4,2.4,0,0,1-1,2.38c-1.57.82-2.8-.7-2.65-2.14A1.86,1.86,0,0,1,10.43,92.82Zm.51,3.77c1.39,0,1.15-3.84-.47-3.46C9.19,93.43,9.68,96.61,10.94,96.59Z"/><path class="cls-1" d="M17,92.82c2.19-.41,2.9,2.55,1.48,3.73s-3-.25-3-1.75A1.93,1.93,0,0,1,17,92.82Zm.59,3.77c1.29-.11,1.09-3.85-.55-3.46C15.78,93.42,16.22,96.7,17.56,96.59Z"/><path class="cls-1" d="M22.77,93.94c-.12.19-.49.19-.7.08-.2-.37-.12-.85-.55-.92-.73-.15-1.11.68-1.12,1.35,0,1.21,1.12,2.46,2.06,1.37.14-.18.17-.45.39-.55a1.63,1.63,0,0,1-1.44,1.67c-2.31.1-2.13-3.89-.2-4.17C21.88,92.68,22.92,92.91,22.77,93.94Z"/><path class="cls-1" d="M26.7,94.37H24.09c-.14,1.2,1.13,2.35,2,1.56.22-.2.27-.53.5-.66a1.54,1.54,0,0,1-1.44,1.67c-1.87,0-2.28-2.87-1-3.84A1.54,1.54,0,0,1,26.7,94.37Zm-2.61-.27H25.8A.86.86,0,1,0,24.09,94.1Z"/><path class="cls-1" d="M28.29,92.77v.71c.31-.43,1.49-1.13,2-.35a1.93,1.93,0,0,1,.23.93,10.84,10.84,0,0,0,0,2.33c.08.16.39.2.51.32-.1.2-.62.12-.94.12s-.77.06-1-.08c.07-.26.38-.06.55-.27A7.21,7.21,0,0,0,29.81,94c-.11-1-1-.8-1.52-.12.15.73-.22,2,.08,2.49.14.25.33.15.55.32-.1.2-.62.12-.94.12s-.77.06-1-.08c0-.23.38-.1.47-.24a7.74,7.74,0,0,0,0-3.11c-.16-.13-.38.13-.47,0s.32-.26.51-.35A2,2,0,0,1,28.29,92.77Z"/><path class="cls-1" d="M33.86,92.77a10.09,10.09,0,0,1,0,1.37c-.32-.11-.27-.46-.43-.7s-1.17-.7-1.32,0c-.19.89,1.44,1,1.86,1.63.81,1.13-.63,2.35-2,1.72-.12-.09-.19.14-.43.07a9.61,9.61,0,0,1,.05-1.44c.32.07.22.35.34.59a1.24,1.24,0,0,0,.78.62c.55.07.82-.2.78-.66-.08-.8-1.53-.82-1.87-1.56-.51-1.1.64-2,1.83-1.47C33.65,93,33.58,92.69,33.86,92.77Z"/><path class="cls-1" d="M42.73,92.82c3.27-.56,2.52,5.17-.39,4C40.68,96.15,41,93.11,42.73,92.82Zm.46,3.77c1.44,0,1.16-3.9-.46-3.46C41.48,93.46,42,96.59,43.19,96.59Z"/><path class="cls-1" d="M55.61,96.28c.32.07.34-.36.54-.27a.92.92,0,0,1-1.16.82.7.7,0,0,1-.2-.51c-.33.25-1.25,1-1.83.35a1.21,1.21,0,0,1-.15-1.32c.34-.65,1.48-.9,2-1.17,0-.47,0-.84-.27-1a.62.62,0,0,0-.94.23c-.09.25.09.55-.15.74a.75.75,0,0,1-.47,0c-.74-1.44,2.29-1.93,2.53-.62C55.65,94.4,55.29,95.46,55.61,96.28Zm-2.18-.82c-.24,1.07,1,1,1.36.47v-1.4h-.08C54.32,94.75,53.54,95,53.43,95.46Z"/><path class="cls-1" d="M62,92.77a22.63,22.63,0,0,0,.12,3.74c.09.12.41,0,.46.2-.1.2-.61.12-.93.12s-.75.06-.94-.08c.09-.26.36-.08.51-.31a6.71,6.71,0,0,0,.08-2.26,1.54,1.54,0,0,0-.16-.78c-.16-.14-.39.15-.47,0s.27-.26.47-.35A2.64,2.64,0,0,1,62,92.77Z"/><path class="cls-1" d="M65.41,92.77c0,.44.1,1.07-.08,1.37-.22-.13-.19-.4-.31-.62-.21-.38-1.2-.79-1.36-.08-.22,1,2,1,2.06,2.22a1.2,1.2,0,0,1-1.2,1.28c-.54,0-.93-.3-1.41-.08.06-.45-.09-1.11.08-1.44.27.18.21.55.43.82s1.33.69,1.44-.08-1.31-1-1.75-1.55c-.87-1.09.63-2.36,1.71-1.67C65.24,93,65.16,92.71,65.41,92.77Z"/><path class="cls-1" d="M71.52,96.28c.32.07.34-.36.54-.27.07.69-1.32,1.32-1.36.31-.37.14-.62.59-1.2.58a1,1,0,0,1-.82-1.52c.32-.68,1.4-.86,2-1.2,0-.37,0-.66-.15-.9a.65.65,0,0,0-1.09.16c-.06.19.09.49-.08.66a.56.56,0,0,1-.51,0c-.65-1.29,1.59-1.8,2.3-1.09S71.08,95.41,71.52,96.28Zm-2.14-.93a.69.69,0,0,0,.47,1c.39,0,.56-.27.85-.42v-1.4h-.08C70.27,94.75,69.55,94.9,69.38,95.35Z"/><path class="cls-1" d="M79.46,96.28c.32.07.34-.36.54-.27a.89.89,0,0,1-1.21.78,1.13,1.13,0,0,1-.15-.47c-.39.22-.7.59-1.21.58a1,1,0,0,1-.81-1.48c.3-.71,1.26-.87,2-1.2.25-1-.74-1.51-1.21-.86,0,.36,0,.68-.19.82a1.15,1.15,0,0,1-.43,0c-.85-1.41,2.4-1.93,2.53-.66C79.44,94.5,79.28,95.26,79.46,96.28Zm-2.19-.7c-.09,1,1.06.88,1.37.31,0-.38.09-1.34-.08-1.32C78.09,94.73,77.33,95,77.27,95.58Z"/><path class="cls-1" d="M91.4,96.28c.31.06.35-.35.55-.27,0,.68-1.33,1.34-1.37.31-.37.14-.61.59-1.21.58a1,1,0,0,1-.85-1.44c.25-.75,1.44-.94,2.06-1.28.09-.67-.28-1.29-.89-1.08-.43.13-.28.56-.43,1a.56.56,0,0,1-.51,0c-.8-1.37,2.36-2,2.53-.51A13,13,0,0,0,91.4,96.28Zm-2.18-.86c-.3,1,1,1.12,1.36.51v-1.4h-.07C90.11,94.75,89.37,94.92,89.22,95.42Z"/><path class="cls-1" d="M93.34,92.77v.67c.28-.27,1.18-1,1.83-.5a1.41,1.41,0,0,1,.39,1c.08.81-.2,2.12.08,2.54.09.12.43.16.5.27-.09.2-.61.12-.93.12s-.77.06-1-.08c.06-.23.46-.11.55-.31-.13-.81.42-2.78-.28-3.08-.44-.19-.92.19-1.17.5.14.69-.18,1.87,0,2.46.1.32.37.2.59.39-.1.2-.62.12-.93.12s-.75.06-.94-.08c.06-.26.31-.07.47-.27s.07-1,.07-1.57a3.87,3.87,0,0,0-.11-1.51c-.15-.12-.37.09-.47,0-.12-.25.26-.26.47-.35S92.94,92.74,93.34,92.77Z"/><path class="cls-1" d="M103.07,92.77c0,.44.1,1.07-.08,1.37-.3-.22-.2-.68-.54-.94s-1.12-.15-1.17.32c-.1.9,1.73.9,2,1.78a1.22,1.22,0,0,1-1.17,1.64c-.54,0-.9-.3-1.36-.08,0-.45-.11-1.11.07-1.44.22.08.19.37.28.55a1,1,0,0,0,1.12.66.61.61,0,0,0,.47-.51c.1-1-1.6-.89-1.91-1.75-.41-1.14.65-2,1.87-1.43C102.87,92.94,102.82,92.71,103.07,92.77Z"/><path class="cls-1" d="M106.81,96.28c.33.07.38-.34.58-.27,0,.68-1.32,1.34-1.36.31-.38.13-.61.58-1.17.58a1,1,0,0,1-.89-1.44c.24-.73,1.38-.94,2-1.24.28-1-.79-1.53-1.21-.82a1.19,1.19,0,0,1-.11.74,1.15,1.15,0,0,1-.43,0c-.75-1.12,1.18-1.82,2.1-1.24S106.47,95.27,106.81,96.28Zm-2.18-.58a.63.63,0,0,0,.54.65,1,1,0,0,0,.82-.46c.05-.17,0-1.41-.08-1.32C105.43,94.75,104.61,95,104.63,95.7Z"/><path class="cls-1" d="M38.6,93c0,.23-.41,0-.42.28a12.14,12.14,0,0,0,.93,2.48A15.75,15.75,0,0,0,40,93.2c0-.19-.39,0-.42-.19s.38-.12.62-.12.57-.06.66.08-.27.16-.39.28a3.42,3.42,0,0,0-.39.93c-.35.89-.77,2-1.16,2.76-.27-.09-.39-.53-.51-.82-.26-.62-.48-1.24-.74-1.9s-.34-1-.9-1.17V93A4.16,4.16,0,0,1,38.6,93Z"/><path class="cls-1" d="M73.93,93c0,.23-.4,0-.43.23a15.84,15.84,0,0,0,.9,2.57,15,15,0,0,0,1-2.57c0-.18-.39,0-.43-.19s.39-.12.63-.12.57-.06.66.08-.2.09-.27.16c-.72,1.11-1,2.63-1.68,3.81-.32-.11-.38-.55-.5-.86-.26-.63-.5-1.26-.78-1.94-.21-.52-.34-1-.9-1.09V93A4.34,4.34,0,0,1,73.93,93Z"/><path class="cls-1" d="M97.51,92.89c.2.93-.43,3.25.39,3.46.51.14.85-.27,1.12-.53A16.47,16.47,0,0,0,99,93.25c0-.22-.46-.08-.54-.24s.38-.12.61-.12h.7a21.76,21.76,0,0,0,.12,3.39c.17.15.45-.12.51,0s-.35.3-.55.39a2,2,0,0,1-.78.23V96.2c-.33.59-1.73,1.17-2.14.15-.21-.56.14-2.66-.19-3.1a.94.94,0,0,0-.55-.2V93C96.45,92.79,97.08,92.94,97.51,92.89Z"/><path class="cls-1" d="M6.31,101.29V104c.56-.75,2.05-1.09,2.22.31.07.61-.21,2.2.08,2.69.08.14.38.17.51.27-.1.21-.62.11-.94.11s-.77.07-1-.07c.08-.24.47,0,.58-.35a5.69,5.69,0,0,0-.19-3c-.43-.35-1,.11-1.29.46.16.7-.22,2,0,2.53.13.26.37.15.59.31-.1.21-.62.11-.94.11s-.77.07-1-.07c0-.22.38-.09.47-.23a23.87,23.87,0,0,0,0-5.14c-.17-.17-.45.13-.55-.11A3,3,0,0,1,6.31,101.29Z"/><path class="cls-1" d="M27.52,101.29v2.89a12,12,0,0,0,.11,2.72c.15.14.41-.15.47,0s-.37.25-.58.35-.46.3-.74.24v-.43a1.8,1.8,0,0,1-1.52.38c-1.77-.52-1.38-4.56,1-4.17a2.38,2.38,0,0,1,.55.28c-.05-.54.1-1.29-.12-1.67-.16-.12-.39.14-.47,0s.28-.27.47-.35A2.41,2.41,0,0,1,27.52,101.29Zm-1.64,2.34c-1.37.08-1.23,3.3.12,3.39.39,0,.52-.17.78-.35C26.71,105.4,27.12,103.56,25.88,103.63Z"/><path class="cls-1" d="M29,101.37c.78-.42,1,.82.32.82C28.92,102.19,28.74,101.74,29,101.37Z"/><path class="cls-1" d="M35.3,101.29v4.32a4.61,4.61,0,0,0,0,1.37c.09.19.37.19.54.31-.1.21-.61.11-.93.11s-.75.07-.94-.07c0-.19.34-.09.47-.28a8.79,8.79,0,0,0,.08-2.6,7.27,7.27,0,0,0-.16-2.53c-.15-.11-.37.14-.47,0s.32-.27.51-.35A2.35,2.35,0,0,1,35.3,101.29Z"/><path class="cls-1" d="M79.73,101.29v4.37A3.83,3.83,0,0,0,79.8,107c.12.17.39.16.55.27-.1.21-.61.11-.94.11s-.77.07-1-.07c0-.22.39-.08.47-.23a33.92,33.92,0,0,0,0-5.14c-.16-.17-.44.13-.54-.11A2.9,2.9,0,0,1,79.73,101.29Z"/><path class="cls-1" d="M82.06,101.29v4.37a3.8,3.8,0,0,0,.08,1.36c.11.17.39.16.54.27-.09.21-.61.11-.93.11s-.77.07-1-.07c0-.23.4-.06.46-.23a31.5,31.5,0,0,0,0-5.14c-.16-.17-.44.13-.54-.11A3,3,0,0,1,82.06,101.29Z"/><path class="cls-1" d="M97.78,101.29V104c.58-.8,2.06-1.09,2.22.35.08.78-.21,2.18.08,2.65.08.14.38.18.5.27-.1.21-.62.11-.93.11s-.78.07-1-.07c.09-.24.38,0,.55-.28a7.15,7.15,0,0,0,0-2.87c-.31-.62-1-.22-1.4.27.16,1-.46,2.85.63,2.84-.11.21-.62.11-.94.11s-.78.07-1-.07c0-.22.37-.09.46-.23A33.92,33.92,0,0,0,97,102c-.13-.19-.41.12-.5-.08s.3-.22.5-.31S97.38,101.27,97.78,101.29Z"/><path class="cls-1" d="M101.67,101.34c.37-.13.54.08.58.23a.46.46,0,0,1-.85.35C101.29,101.55,101.45,101.41,101.67,101.34Z"/><path class="cls-1" d="M4.68,101.57c-.07.48.17,1,0,1.39-.24-.13-.15-.51-.35-.73S3.43,102,2.77,102v2.57c0,.78-.2,2.07.08,2.49.17.26.55.1.74.27,0,.21-.37.11-.55.11a8.43,8.43,0,0,1-1.9-.07c.14-.26.45,0,.66-.23a1.18,1.18,0,0,0,.16-.48c.15-1.2-.12-3.4,0-4.62a2.81,2.81,0,0,0-1.21,0c-.43.17-.41.58-.62.92-.23,0-.09-.3-.08-.5a3,3,0,0,1,0-.77v-.12Z"/><path class="cls-1" d="M17.67,101.65c0,.21-.31.11-.46.16a.83.83,0,0,0-.39.23c-.07,1.52-.07,3.3,0,4.82a2.6,2.6,0,0,0,2.64-.39c.17-.23.17-.55.43-.7.09.47-.31,1.08-.39,1.63-1.39-.05-3,.11-4.36-.07,0-.23.26-.08.39-.12.6-.18.39-1.68.39-2.72,0-1.27.36-2.83-.78-2.76v-.08c0-.05,0-.07,0-.08A15.39,15.39,0,0,1,17.67,101.65Z"/><path class="cls-1" d="M48.64,101.65c0,.2-.28.12-.39.16-.67.22-.36,1.46-.42,2.41.76.09,1.69,0,2.52,0-.06-.62.28-1.85-.07-2.3-.19-.23-.43-.1-.7-.27,0-.21.36-.12.54-.12a8.5,8.5,0,0,1,1.91.08c-.12.21-.59.09-.74.35a8,8,0,0,0-.08,2.49c0,.89-.19,2.11.12,2.53.14.19.53.15.7.27-.05.21-.37.11-.55.11a8.43,8.43,0,0,1-1.9-.07c.13-.24.47-.06.66-.23.45-.42,0-1.78.15-2.5H47.87c.05.64-.24,1.81,0,2.34.16.31.43.18.74.35,0,.21-.37.11-.54.11a8.14,8.14,0,0,1-1.87-.07c.11-.21.55-.09.7-.31a7.7,7.7,0,0,0,.08-2.53,7.53,7.53,0,0,0-.08-2.49c-.13-.2-.53-.23-.7-.27v-.08A7.49,7.49,0,0,1,48.64,101.65Z"/><path class="cls-1" d="M74,101.57c0,.42.07,1,0,1.32-.35-.1-.23-.4-.39-.62-.42-.54-1.31-.28-2.22-.35v2.22c.51,0,1.2.17,1.52-.12s.06-.45.27-.66c.21,0,.11.29.12.43a5.6,5.6,0,0,1-.08,1.55c-.21-.11-.12-.36-.19-.5-.25-.46-1-.21-1.6-.28,0,.65-.23,1.85,0,2.38.16.31.43.18.74.35-.05.21-.37.11-.55.11a8.05,8.05,0,0,1-1.86-.07c.11-.21.55-.09.7-.31a7.74,7.74,0,0,0,.07-2.53,7.57,7.57,0,0,0-.07-2.49c-.13-.2-.53-.23-.7-.27v-.08c0-.05,0-.07,0-.08Z"/><path class="cls-1" d="M12.66,105H10.05c-.23,1.72,2,2.55,2.45.9.31.13.05.52,0,.69a1.48,1.48,0,0,1-1.67,1c-1.8-.29-1.9-4,.15-4.22A1.48,1.48,0,0,1,12.66,105Zm-2.61-.31h1.71C11.87,103.31,10,103.5,10.05,104.64Z"/><path class="cls-1" d="M23.31,106.86c.24.14.41-.32.55-.27.07.75-1.33,1.34-1.36.31-.34.14-.47.44-.78.54a1,1,0,0,1-1.13-1.63,4.57,4.57,0,0,1,1.91-1c0-.55-.07-1-.47-1.13-.66-.16-.77.44-.85,1.05-.39.27-.8-.12-.59-.69s2.12-1,2.53-.16S22.91,106,23.31,106.86Zm-2.17-.7c-.05.42.14.73.46.78a1,1,0,0,0,.9-.47,3.71,3.71,0,0,0-.08-1.36C22,105.32,21.2,105.56,21.14,106.16Z"/><path class="cls-1" d="M29.66,103.31c.07.88-.1,2.53,0,3.39,0,.4.25.49.58.59-.1.21-.61.11-.93.11s-.75.07-.94-.07c0-.23.36-.06.43-.2a7,7,0,0,0,0-3.18c-.2-.07-.45.15-.47-.09s.3-.17.51-.27A1.77,1.77,0,0,1,29.66,103.31Z"/><path class="cls-1" d="M33.12,103.31c0,.44.1,1.07-.08,1.37-.25-.17-.21-.59-.43-.82s-1.05-.35-1.24.09c-.15,1.2,2,.94,2.06,2.37,0,1-1,1.49-2.18,1.05-.22,0-.18.18-.43.11a11.22,11.22,0,0,1,0-1.44c.27,0,.23.35.31.5a1.12,1.12,0,0,0,1,.71.59.59,0,0,0,.62-.63c0-.88-1.6-.83-1.91-1.7-.39-1.1.64-2,1.83-1.44C32.94,103.54,32.85,103.24,33.12,103.31Z"/><path class="cls-1" d="M39.23,106.86c.22.12.41-.31.54-.27.07.74-1.34,1.36-1.36.31-.29.12-.45.4-.7.5a1,1,0,0,1-1.36-1.32c.25-.77,1.3-1,2.06-1.32,0-.42,0-.94-.39-1.09-.55-.22-1,.18-.85.89-.28.4-.88.12-.7-.5a1.73,1.73,0,0,1,2.29-.55C39.57,104.07,38.79,105.93,39.23,106.86ZM37.05,106c-.25,1.1,1.15,1.07,1.36.43a3.71,3.71,0,0,0-.08-1.36C37.93,105.3,37.16,105.55,37.05,106Z"/><path class="cls-1" d="M55.37,106.9c.29,0,.34-.38.55-.31.06.72-1.34,1.38-1.36.31-.42.26-1,.82-1.64.5a1.11,1.11,0,0,1-.43-1.36c.26-.73,1.32-.93,2.07-1.28,0-.74-.27-1.25-.86-1.13a.58.58,0,0,0-.39.36c-.13.42.1.8-.39.77a.42.42,0,0,1-.35-.35c-.19-1.13,2-1.47,2.53-.7S55,106,55.37,106.9ZM53.19,106c-.33,1.06,1.07,1.14,1.37.46-.05-.39.08-1.36-.08-1.36C54.07,105.28,53.34,105.55,53.19,106Z"/><path class="cls-1" d="M57.32,103.31V104c.28-.45,1.46-1.1,2-.35a1.8,1.8,0,0,1,.23.82,12.57,12.57,0,0,0,0,2.49c.09.18.39.21.55.31-.1.21-.62.11-.93.11s-.78.07-1-.07c0-.22.38-.07.47-.2a9.93,9.93,0,0,0,.12-2.57c-.12-1-1-.73-1.48-.15.18.7-.28,2.16.08,2.64.14.2.31.09.5.24-.09.21-.61.11-.93.11s-.78.07-1-.07c.11-.24.34,0,.5-.28a.8.8,0,0,0,.08-.26,11.43,11.43,0,0,0-.12-2.8c-.14-.15-.43.1-.5-.09s.33-.22.54-.31S56.93,103.3,57.32,103.31Z"/><path class="cls-1" d="M67,103.31a7.61,7.61,0,0,1,0,1.37c-.28-.08-.23-.37-.34-.58a1,1,0,0,0-.51-.47c-.55-.13-.87.16-.9.47,0,.66.93.77,1.52,1.21,1.32,1,.07,2.87-1.59,2.06-.23,0-.19.18-.43.11,0-.45-.11-1.11.08-1.44.2.11.2.4.31.58a1.06,1.06,0,0,0,.93.63.61.61,0,0,0,.62-.55c.08-1-1.93-.88-2-2.17,0-.87.78-1.51,1.91-1C66.87,103.54,66.78,103.24,67,103.31Z"/><path class="cls-1" d="M77.9,105H75.33c-.18,1.26,1.08,2.33,2,1.59.24-.17.26-.45.51-.69a1.51,1.51,0,0,1-2.14,1.55c-1.22-.55-1.32-2.9-.31-3.73S78.13,103.39,77.9,105Zm-2.57-.31H77C77.15,103.33,75.23,103.47,75.33,104.64Z"/><path class="cls-1" d="M84.67,103.36c2.41-.35,2.78,3.41.86,4.08-2.45.86-3-2.68-1.68-3.77A1.74,1.74,0,0,1,84.67,103.36Zm.27,3.81c1.63.18,1.22-3.77-.27-3.5S83.82,107.05,84.94,107.17Z"/><path class="cls-1" d="M95.84,103.31a10,10,0,0,1,0,1.37c-.33-.09-.24-.42-.43-.69-.42-.6-1.75-.35-1.21.5.32.5,1.54.6,1.87,1.36.49,1.16-.75,2.07-2.14,1.52-.19,0-.12.19-.35.11,0-.45-.1-1.11.08-1.44.2.08.16.3.23.47a1.15,1.15,0,0,0,1,.74.59.59,0,0,0,.63-.74c-.11-.65-1.44-.76-1.83-1.48a1.22,1.22,0,0,1,1.79-1.55C95.66,103.53,95.56,103.24,95.84,103.31Z"/><path class="cls-1" d="M102.18,103.31c0,.86-.08,2.45,0,3.31a.62.62,0,0,0,.58.67c-.09.21-.61.11-.93.11s-.75.07-.94-.07c.09-.24.31,0,.47-.23.38-.43,0-2.61,0-3.11-.13-.15-.45.09-.51-.09a3.22,3.22,0,0,1,1.09-.59A.93.93,0,0,0,102.18,103.31Z"/><path class="cls-1" d="M104.28,107.25c.09.5-.15,1.22,0,1.59s.35.15.58.32c0,.21-.31.11-.47.11a6,6,0,0,1-1.55-.07c0-.23.47-.07.58-.24a14.69,14.69,0,0,0,.08-2.53,9.12,9.12,0,0,0-.12-2.44c-.12-.14-.38.06-.46,0s.33-.31.54-.39a2.09,2.09,0,0,1,.78-.2v.74a1.37,1.37,0,0,1,1.94-.54c1.33,1,.69,4.47-1.47,3.92A2,2,0,0,1,104.28,107.25Zm0-2.65a6.32,6.32,0,0,0,0,2.1.89.89,0,0,0,1.36.35c.78-.62.55-3.33-.74-3A.86.86,0,0,0,104.28,104.6Z"/><path class="cls-1" d="M41.64,103.51c-.09.23-.32.08-.43.28s.27.88.43,1.28.33,1,.46,1.28a16.19,16.19,0,0,0,1-2.56c0-.21-.37-.08-.43-.23s.38-.12.62-.12.58-.06.67.07-.28.16-.39.28a3.06,3.06,0,0,0-.39.94c-.36.88-.75,2-1.17,2.8-.32-.12-.39-.54-.51-.83s-.23-.62-.35-.93a9.35,9.35,0,0,0-1-2.06c-.11,0-.27,0-.35-.12v-.08A4.7,4.7,0,0,1,41.64,103.51Z"/><path class="cls-1" d="M61.48,103.44c.18,1-.45,3.42.51,3.54.5.06.73-.33,1-.59-.17-.7.25-2.06-.08-2.56-.14-.22-.34-.11-.54-.27,0-.21.38-.12.62-.12h.7a21,21,0,0,0,.11,3.42c.13.2.42-.1.51.08s-.36.25-.58.35a1.41,1.41,0,0,1-.74.24v-.71c-.68.86-2.14,1.07-2.26-.54-.08-1.08.4-2.71-.62-2.69v-.08C60.42,103.33,61.05,103.49,61.48,103.44Z"/><path class="cls-1" d="M88.68,103.48c0,.27-.33.14-.36.35.23.92.59,1.69.86,2.56a4.78,4.78,0,0,0,.39-.89,3.73,3.73,0,0,0,.39-.86,1.16,1.16,0,0,0-.78-1.08c.09-.21.58-.12.9-.12s.75-.06.93.07c-.06.23-.47.11-.5.35.21.9.6,1.6.85,2.46.33-.8.62-1.64.9-2.49,0-.2-.35-.13-.43-.27s.37-.12.58-.12a1.91,1.91,0,0,1,.66,0c0,.23-.24.21-.35.31-.41.81-.75,2-1.13,3-.09.23-.17.65-.46.74a22.51,22.51,0,0,1-1-2.46A25.19,25.19,0,0,1,89,107.53c-.27-.18-.32-.55-.43-.86-.22-.61-.46-1.21-.7-1.87s-.26-1-.78-1.21v-.08A4.74,4.74,0,0,1,88.68,103.48Z"/></g></g></svg>